<?xml version="1.0" encoding="UTF-8" standalone="no"?>
<svg
   viewBox="0 0 2100 2970"
   width="210mm"
   height="297mm"
   version="1.1"
   id="svg64"
   sodipodi:docname="printvel_compleet.svg"
   inkscape:version="1.4.4 (dcaf3e7d9e, 2026-05-05)"
   xmlns:inkscape="http://www.inkscape.org/namespaces/inkscape"
   xmlns:sodipodi="http://sodipodi.sourceforge.net/DTD/sodipodi-0.dtd"
   xmlns="http://www.w3.org/2000/svg"
   xmlns:svg="http://www.w3.org/2000/svg">
  <sodipodi:namedview
     id="namedview64"
     pagecolor="#ffffff"
     bordercolor="#666666"
     borderopacity="1.0"
     inkscape:showpageshadow="2"
     inkscape:pageopacity="0.0"
     inkscape:pagecheckerboard="0"
     inkscape:deskcolor="#d1d1d1"
     inkscape:document-units="mm"
     inkscape:zoom="0.77771465"
     inkscape:cx="231.44736"
     inkscape:cy="480.25327"
     inkscape:window-width="1918"
     inkscape:window-height="1059"
     inkscape:window-x="0"
     inkscape:window-y="19"
     inkscape:window-maximized="1"
     inkscape:current-layer="svg64" />
  <!-- Achtergrond -->
  <rect
     width="100%"
     height="100%"
     fill="white"
     id="rect1" />
  <!-- TITEL -->
  <!-- DEFINITIES (Het basisontwerp van de vlinder) -->
  <defs
     id="defs30">
    <g
       id="vlinder">
      <!-- Klok buitenring -->
      <circle
         cx="400"
         cy="400"
         r="330"
         fill="none"
         stroke="#ccc"
         stroke-width="3"
         stroke-dasharray="12,12"
         id="circle2" />
      <!-- Voelsprieten -->
      <path
         d="M 370 140 Q 320 60 250 90"
         fill="none"
         stroke="black"
         stroke-width="5"
         stroke-linecap="round"
         id="path2" />
      <circle
         cx="250"
         cy="90"
         r="10"
         fill="black"
         id="circle3" />
      <path
         d="M 430 140 Q 480 60 550 90"
         fill="none"
         stroke="black"
         stroke-width="5"
         stroke-linecap="round"
         id="path3" />
      <circle
         cx="550"
         cy="90"
         r="10"
         fill="black"
         id="circle4" />
      <!-- VLEUGELS -->
      <g
         fill="white"
         stroke="black"
         stroke-width="6"
         stroke-linejoin="round"
         id="g9">
        <path
           d="M 400 280 C 250 160 140 220 120 320 C 110 360 110 380 130 400 C 120 440 120 460 150 480 C 140 550 190 680 260 650 C 310 630 350 580 400 520 Z"
           id="path4" />
        <path
           d="M 400 360 Q 250 350 130 400"
           fill="none"
           stroke-linecap="round"
           id="path5" />
        <path
           d="M 400 440 Q 250 440 150 480"
           fill="none"
           stroke-linecap="round"
           id="path6" />
        <path
           d="M 400 280 C 550 160 660 220 680 320 C 690 360 690 380 670 400 C 680 440 680 460 650 480 C 660 550 610 680 540 650 C 490 630 450 580 400 520 Z"
           id="path7" />
        <path
           d="M 400 360 Q 550 350 670 400"
           fill="none"
           stroke-linecap="round"
           id="path8" />
        <path
           d="M 400 440 Q 550 440 650 480"
           fill="none"
           stroke-linecap="round"
           id="path9" />
      </g>
      <!-- INVUL-RONDJES VOOR DE LETTERS -->
      <g
         fill="white"
         stroke="black"
         stroke-width="3"
         stroke-dasharray="4,4"
         id="g14">
        <circle
           cx="240"
           cy="280"
           r="28"
           id="circle9" />
        <circle
           cx="220"
           cy="410"
           r="28"
           id="circle10" />
        <circle
           cx="270"
           cy="560"
           r="28"
           id="circle11" />
        <circle
           cx="560"
           cy="280"
           r="28"
           id="circle12" />
        <circle
           cx="580"
           cy="410"
           r="28"
           id="circle13" />
        <circle
           cx="530"
           cy="560"
           r="28"
           id="circle14" />
      </g>
      <!-- KLOK GETALLEN -->
      <g
         font-family="sans-serif"
         text-anchor="middle"
         fill="black"
         id="g25">
        <text
           x="400"
           y="80"
           font-size="40"
           font-weight="bold"
           id="text14">12</text>
        <text
           x="565"
           y="125"
           font-size="30"
           id="text15">1</text>
        <text
           x="685"
           y="245"
           font-size="30"
           id="text16">2</text>
        <text
           x="745"
           y="415"
           font-size="40"
           font-weight="bold"
           id="text17">3</text>
        <text
           x="685"
           y="585"
           font-size="30"
           id="text18">4</text>
        <text
           x="565"
           y="705"
           font-size="30"
           id="text19">5</text>
        <text
           x="400"
           y="760"
           font-size="40"
           font-weight="bold"
           id="text20">6</text>
        <text
           x="235"
           y="705"
           font-size="30"
           id="text21">7</text>
        <text
           x="115"
           y="585"
           font-size="30"
           id="text22">8</text>
        <text
           x="55"
           y="415"
           font-size="40"
           font-weight="bold"
           id="text23">9</text>
        <text
           x="115"
           y="245"
           font-size="30"
           id="text24">10</text>
        <text
           x="235"
           y="125"
           font-size="30"
           id="text25">11</text>
      </g>
      <!-- LIJFJE -->
      <ellipse
         cx="400"
         cy="400"
         rx="55"
         ry="140"
         fill="white"
         stroke="black"
         stroke-width="6"
         id="ellipse25" />
      <circle
         cx="400"
         cy="400"
         r="8"
         fill="white"
         stroke="black"
         stroke-width="4"
         id="circle25" />
      <!-- KOP / SYMBOOL PLEK -->
      <circle
         cx="400"
         cy="200"
         r="60"
         fill="white"
         stroke="black"
         stroke-width="4"
         stroke-dasharray="8,6"
         id="circle26" />
    </g>
    <!-- NIEUWE SYMBOLEN (voor extra kinderen) -->
    <polygon
       id="s-ster"
       points="0,-95 23,-36 90,-29 38,10 57,86 0,42 -57,86 -38,10 -90,-29 -23,-36" />
    <path
       id="s-klaverblad"
       d="M 0 0 L -48 -48 A 29 29 0 1 1 0 -58 A 29 29 0 1 1 48 -48 Z" />
    <g
       id="s-klavertje4-harten">
      <use
         href="#s-klaverblad"
         id="use27" />
      <use
         href="#s-klaverblad"
         transform="rotate(90)"
         id="use28" />
      <use
         href="#s-klaverblad"
         transform="rotate(180)"
         id="use29" />
      <use
         href="#s-klaverblad"
         transform="rotate(270)"
         id="use30" />
    </g>
    <g
       id="s-klavertje4-aders" />
    <polygon
       id="s-kroon"
       points="-75,40 -58,-30 -30,8 0,-55 30,8 58,-30 75,40" />
  </defs>
  <!-- ========================================================================= -->
  <!-- OPTIMALISATIE: MAXIMALE GROOTTE (115% geschaald) EN SLIM GEBRUIK VAN GATEN -->
  <!-- ========================================================================= -->
  <!-- 1. Vlinder + Hartje -->
  <g
     transform="translate(60, 130) scale(1.15)"
     id="g33">
    <use
       href="#vlinder"
       id="use31" />
    <!-- Symbool geplaatst in de lege ruimte linksboven van het vierkant -->
    <g
       transform="translate(857.32855,91.125056)"
       id="g32">
      <circle
         r="60"
         fill="none"
         stroke="#999999"
         stroke-width="3"
         stroke-dasharray="5, 5"
         id="circle31"
         cx="0"
         cy="0" />
      <g
         transform="matrix(0.5,0,0,0.5,-125,-130)"
         id="g31">
        <path
           d="m 250,340 c 110,-70 110,-180 0,-120 -110,-60 -110,50 0,120 z"
           fill="#dc143c"
           stroke="#8b0000"
           stroke-width="4"
           id="path31" />
      </g>
    </g>
  </g>
  <!-- 2. Vlinder + Bliksem -->
  <g
     transform="translate(1120, 130) scale(1.15)"
     id="g36">
    <use
       href="#vlinder"
       id="use33" />
    <g
       transform="translate(-71.58225,667.99641)"
       id="g35">
      <circle
         r="60"
         fill="none"
         stroke="#999999"
         stroke-width="3"
         stroke-dasharray="5, 5"
         id="circle33"
         cx="0"
         cy="0" />
      <g
         transform="matrix(0.5,0,0,0.5,-275,-130)"
         id="g34">
        <polygon
           points="500,270 550,270 530,360 610,240 550,240 560,160 "
           fill="#ffe600"
           stroke="#daa520"
           stroke-width="5"
           stroke-linejoin="round"
           id="polygon33" />
      </g>
    </g>
  </g>
  <!-- 3. Vlinder + Wolk -->
  <g
     transform="translate(60, 1080) scale(1.15)"
     id="g39">
    <use
       href="#vlinder"
       id="use36" />
    <g
       transform="translate(87.448934,-5.6381398)"
       id="g38">
      <circle
         r="60"
         fill="none"
         stroke="#999999"
         stroke-width="3"
         stroke-dasharray="5, 5"
         id="circle36"
         cx="0"
         cy="0" />
      <g
         transform="matrix(0.5,0,0,0.5,-125,-310)"
         id="g37">
        <path
           d="m 170,660 c -40,0 -40,-80 10,-80 10,-70 120,-70 140,-10 50,-10 60,80 10,90 z"
           fill="#87ceeb"
           stroke="#1e90ff"
           stroke-width="5"
           stroke-linejoin="round"
           id="path36" />
      </g>
    </g>
  </g>
  <!-- 4. Vlinder + Bloem -->
  <g
     transform="translate(1120, 1080) scale(1.15)"
     id="g52">
    <use
       href="#vlinder"
       id="use39" />
    <g
       transform="translate(709.41282,824.78709)"
       id="g51">
      <circle
         r="60"
         fill="none"
         stroke="#999999"
         stroke-width="3"
         stroke-dasharray="5, 5"
         id="circle39"
         cx="0"
         cy="0" />
      <g
         transform="matrix(0.5,0,0,0.5,-275,-310)"
         id="g50">
        <g
           stroke="#ff1493"
           stroke-width="8"
           id="g44">
          <circle
             cx="550"
             cy="575"
             r="35"
             fill="#ff69b4"
             id="circle40" />
          <circle
             cx="593"
             cy="606"
             r="35"
             fill="#ff69b4"
             id="circle41" />
          <circle
             cx="576"
             cy="656"
             r="35"
             fill="#ff69b4"
             id="circle42" />
          <circle
             cx="524"
             cy="656"
             r="35"
             fill="#ff69b4"
             id="circle43" />
          <circle
             cx="507"
             cy="606"
             r="35"
             fill="#ff69b4"
             id="circle44" />
        </g>
        <g
           id="g49">
          <circle
             cx="550"
             cy="575"
             r="35"
             fill="#ff69b4"
             id="circle45" />
          <circle
             cx="593"
             cy="606"
             r="35"
             fill="#ff69b4"
             id="circle46" />
          <circle
             cx="576"
             cy="656"
             r="35"
             fill="#ff69b4"
             id="circle47" />
          <circle
             cx="524"
             cy="656"
             r="35"
             fill="#ff69b4"
             id="circle48" />
          <circle
             cx="507"
             cy="606"
             r="35"
             fill="#ff69b4"
             id="circle49" />
        </g>
        <circle
           cx="550"
           cy="620"
           r="30"
           fill="#9932cc"
           stroke="#800080"
           stroke-width="3"
           id="circle50" />
      </g>
    </g>
  </g>
  <!-- 5. Vlinder + Zon -->
  <g
     transform="translate(60, 2030) scale(1.15)"
     id="g55">
    <use
       href="#vlinder"
       id="use52" />
    <g
       transform="translate(102.95831,8.2922458)"
       id="g54">
      <circle
         r="60"
         fill="none"
         stroke="#999999"
         stroke-width="3"
         stroke-dasharray="5, 5"
         id="circle52"
         cx="0"
         cy="0" />
      <g
         transform="matrix(0.5,0,0,0.5,-125,-490)"
         id="g53">
        <polygon
           points="265.5,922.1 290,910.7 292.4,937.6 319.3,940 307.9,964.5 330,980 307.9,995.5 319.3,1020 292.4,1022.4 290,1049.3 265.5,1037.9 250,1060 234.5,1037.9 210,1049.3 207.6,1022.4 180.7,1020 192.1,995.5 170,980 192.1,964.5 180.7,940 207.6,937.6 210,910.7 234.5,922.1 250,900 "
           fill="#ff8c00"
           stroke="#ff4500"
           stroke-width="5"
           stroke-linejoin="round"
           id="polygon52" />
        <circle
           cx="250"
           cy="980"
           r="45"
           fill="#ff8c00"
           id="circle53" />
      </g>
    </g>
  </g>
  <!-- 6. Vlinder + Maan -->
  <g
     transform="translate(1120, 2030) scale(1.15)"
     id="g58">
    <use
       href="#vlinder"
       id="use55" />
    <g
       transform="translate(-74.540564,76.333483)"
       id="g57">
      <circle
         r="60"
         fill="none"
         stroke="#999999"
         stroke-width="3"
         stroke-dasharray="5, 5"
         id="circle55"
         cx="0"
         cy="0" />
      <g
         transform="matrix(0.5,0,0,0.5,-275,-490)"
         id="g56">
        <path
           d="m 590,890 c -130,0 -130,180 0,180 -60,-50 -60,-130 0,-180 z"
           fill="#32cd32"
           stroke="#228b22"
           stroke-width="4"
           id="path55" />
      </g>
    </g>
  </g>
  <!-- ============================================ -->
  <!-- NIEUWE SYMBOLEN (losse symbolen, geen vlinders) -->
  <!-- ============================================ -->
  <!-- 7. Ster (Paars) -->
  <g
     transform="translate(1924.3299,1061.3402)"
     id="g60">
    <circle
       r="69"
       fill="none"
       stroke="#999999"
       stroke-width="3"
       stroke-dasharray="5, 5"
       id="circle58"
       cx="0"
       cy="0" />
    <g
       transform="scale(0.575)"
       id="g59">
      <use
         href="#s-ster"
         fill="#800080"
         stroke="#6a0dad"
         stroke-width="5"
         stroke-linejoin="round"
         id="use58" />
    </g>
  </g>
  <!-- 8. Klavertje 4 (Groen) -->
  <g
     transform="translate(1063.6082,1136.4433)"
     id="g62">
    <circle
       r="69"
       fill="none"
       stroke="#999999"
       stroke-width="3"
       stroke-dasharray="5, 5"
       id="circle60"
       cx="0"
       cy="0" />
    <g
       transform="scale(0.575)"
       id="g61">
      <use
         href="#s-klavertje4-harten"
         fill="#228b22"
         stroke="#006400"
         stroke-width="4"
         id="use60" />
      <use
         href="#s-klavertje4-aders"
         stroke="#006400"
         stroke-width="3"
         stroke-linecap="round"
         id="use61" />
    </g>
  </g>
  <!-- 9. Kroon (Zilver) -->
  <g
     transform="translate(1029.5876,1878.9175)"
     id="g64">
    <circle
       r="69"
       fill="none"
       stroke="#999999"
       stroke-width="3"
       stroke-dasharray="5, 5"
       id="circle62"
       cx="0"
       cy="0" />
    <g
       transform="scale(0.575)"
       id="g63">
      <use
         href="#s-kroon"
         fill="#c0c0c0"
         stroke="#808080"
         stroke-width="4"
         stroke-linejoin="round"
         id="use62" />
    </g>
  </g>
</svg>
