<svg xmlns="http://www.w3.org/2000/svg" viewBox="0 0 800 800" width="100%" height="100%">
  <!-- Achtergrond -->
  <rect width="100%" height="100%" fill="white"/>

  <!-- Klok buitenring (hulplijn voor de wijzers) -->
  <circle cx="400" cy="400" r="330" fill="none" stroke="#ccc" stroke-width="3" stroke-dasharray="12,12"/>

  <!-- Voelsprieten -->
  <path d="M 370 140 Q 320 60 250 90" fill="none" stroke="black" stroke-width="5" stroke-linecap="round"/>
  <circle cx="250" cy="90" r="10" fill="black"/>
  <path d="M 430 140 Q 480 60 550 90" fill="none" stroke="black" stroke-width="5" stroke-linecap="round"/>
  <circle cx="550" cy="90" r="10" fill="black"/>

  <!-- VLEUGELS (Iets compacter gemaakt zodat ze de cijfers 10, 2, 8 en 4 niet meer raken) -->
  <g fill="white" stroke="black" stroke-width="6" stroke-linejoin="round">
    
    <!-- LINKERVLEUGEL -->
    <path d="M 400 280 
             C 250 160 140 220 120 320 
             C 110 360 110 380 130 400 
             C 120 440 120 460 150 480 
             C 140 550 190 680 260 650 
             C 310 630 350 580 400 520 Z" />
    <path d="M 400 360 Q 250 350 130 400" fill="none" stroke-linecap="round"/>
    <path d="M 400 440 Q 250 440 150 480" fill="none" stroke-linecap="round"/>

    <!-- RECHTERVLEUGEL -->
    <path d="M 400 280 
             C 550 160 660 220 680 320 
             C 690 360 690 380 670 400 
             C 680 440 680 460 650 480 
             C 660 550 610 680 540 650 
             C 490 630 450 580 400 520 Z" />
    <path d="M 400 360 Q 550 350 670 400" fill="none" stroke-linecap="round"/>
    <path d="M 400 440 Q 550 440 650 480" fill="none" stroke-linecap="round"/>
    
  </g>

  <!-- INVUL-RONDJES VOOR DE LETTERS -->
  <g fill="white" stroke="black" stroke-width="3" stroke-dasharray="4,4">
    <!-- Links -->
    <circle cx="240" cy="280" r="28"/>
    <circle cx="220" cy="410" r="28"/>
    <circle cx="270" cy="560" r="28"/>
    
    <!-- Rechts -->
    <circle cx="560" cy="280" r="28"/>
    <circle cx="580" cy="410" r="28"/>
    <circle cx="530" cy="560" r="28"/>
  </g>

  <!-- KLOK GETALLEN -->
  <g font-family="sans-serif" text-anchor="middle" fill="black">
    <text x="400" y="80" font-size="40" font-weight="bold">12</text>
    <text x="565" y="125" font-size="30">1</text>
    <text x="685" y="245" font-size="30">2</text>
    <text x="745" y="415" font-size="40" font-weight="bold">3</text>
    <text x="685" y="585" font-size="30">4</text>
    <text x="565" y="705" font-size="30">5</text>
    <text x="400" y="760" font-size="40" font-weight="bold">6</text>
    <text x="235" y="705" font-size="30">7</text>
    <text x="115" y="585" font-size="30">8</text>
    <text x="55" y="415" font-size="40" font-weight="bold">9</text>
    <text x="115" y="245" font-size="30">10</text>
    <text x="235" y="125" font-size="30">11</text>
  </g>

  <!-- LIJFJE -->
  <ellipse cx="400" cy="400" rx="55" ry="140" fill="white" stroke="black" stroke-width="6"/>
  <!-- Gat voor de splitpen in het midden -->
  <circle cx="400" cy="400" r="8" fill="white" stroke="black" stroke-width="4"/>

  <!-- KOP / SYMBOOL PLEK -->
  <!-- Stippellijn cirkel -->
  <circle cx="400" cy="200" r="60" fill="white" stroke="black" stroke-width="4" stroke-dasharray="8,6"/>
  <!-- Tekst in de kop -->
  <text x="400" y="195" text-anchor="middle" font-family="sans-serif" font-size="16" font-weight="bold">Plak symbool</text>
  <text x="400" y="215" text-anchor="middle" font-family="sans-serif" font-size="16" font-weight="bold">hier</text>

</svg>