<svg xmlns="http://www.w3.org/2000/svg" viewBox="0 0 800 800" width="100%" height="100%">
  <!-- Achtergrond -->
  <rect width="100%" height="100%" fill="white"/>

  <!-- Klok buitenring (hulplijn voor de wijzers) -->
  <circle cx="400" cy="400" r="330" fill="none" stroke="#ccc" stroke-width="3" stroke-dasharray="12,12"/>

  <!-- Klok getallen rondom de vlinder (Buiten de vleugels) -->
  <g font-family="sans-serif" text-anchor="middle" fill="black">
    <text x="400" y="80" font-size="40" font-weight="bold">12</text>
    <text x="565" y="125" font-size="30">1</text>
    <text x="685" y="245" font-size="30">2</text>
    <text x="745" y="415" font-size="40" font-weight="bold">3</text>
    <text x="685" y="585" font-size="30">4</text>
    <text x="565" y="705" font-size="30">5</text>
    <text x="400" y="760" font-size="40" font-weight="bold">6</text>
    <text x="235" y="705" font-size="30">7</text>
    <text x="115" y="585" font-size="30">8</text>
    <text x="55" y="415" font-size="40" font-weight="bold">9</text>
    <text x="115" y="245" font-size="30">10</text>
    <text x="235" y="125" font-size="30">11</text>
  </g>

  <!-- Voelsprieten -->
  <path d="M 370 140 Q 320 60 250 90" fill="none" stroke="black" stroke-width="5" stroke-linecap="round"/>
  <circle cx="250" cy="90" r="10" fill="black"/>
  <path d="M 430 140 Q 480 60 550 90" fill="none" stroke="black" stroke-width="5" stroke-linecap="round"/>
  <circle cx="550" cy="90" r="10" fill="black"/>

  <!-- VLEUGELS -->
  <g fill="white" stroke="black" stroke-width="6" stroke-linejoin="round">
    
    <!-- LINKERVLEUGEL -->
    <!-- Buitenste vloeiende omtrek zonder scherpe hoeken -->
    <path d="M 350 300 C 100 150 40 350 80 450 C 100 650 250 720 350 500 Z" />
    <!-- Verdelingslijnen (als natuurlijke vleugel-nerven) -->
    <path d="M 350 380 Q 200 370 100 410" fill="none" stroke-linecap="round"/>
    <path d="M 350 450 Q 200 480 130 550" fill="none" stroke-linecap="round"/>

    <!-- RECHTERVLEUGEL -->
    <!-- Buitenste vloeiende omtrek zonder scherpe hoeken -->
    <path d="M 450 300 C 700 150 760 350 720 450 C 700 650 550 720 450 500 Z" />
    <!-- Verdelingslijnen (als natuurlijke vleugel-nerven) -->
    <path d="M 450 380 Q 600 370 700 410" fill="none" stroke-linecap="round"/>
    <path d="M 450 450 Q 600 480 670 550" fill="none" stroke-linecap="round"/>
    
  </g>

  <!-- TEKST VAKKEN IN DE VLEUGELS -->
  <g font-family="sans-serif" font-size="28" font-weight="bold" fill="black">
    <text x="200" y="300" text-anchor="middle">_ _</text>
    <text x="170" y="460" text-anchor="middle">_ _</text>
    <text x="240" y="600" text-anchor="middle">_ _</text>
    
    <text x="600" y="300" text-anchor="middle">_ _</text>
    <text x="630" y="460" text-anchor="middle">_ _</text>
    <text x="560" y="600" text-anchor="middle">_ _</text>
  </g>

  <!-- LIJFJE (Langwerpig voor een echte vlinder-vorm) -->
  <ellipse cx="400" cy="400" rx="55" ry="140" fill="white" stroke="black" stroke-width="6"/>
  
  <!-- Gat voor de splitpen in het midden -->
  <circle cx="400" cy="400" r="8" fill="white" stroke="black" stroke-width="4"/>

  <!-- KOP / SYMBOOL PLEK (Rust op het lijfje) -->
  <!-- Stippellijn cirkel -->
  <circle cx="400" cy="200" r="60" fill="white" stroke="black" stroke-width="4" stroke-dasharray="8,6"/>
  <!-- Tekst in de kop -->
  <text x="400" y="195" text-anchor="middle" font-family="sans-serif" font-size="16" font-weight="bold">Plak symbool</text>
  <text x="400" y="215" text-anchor="middle" font-family="sans-serif" font-size="16" font-weight="bold">hier</text>

</svg>