<svg xmlns="http://www.w3.org/2000/svg" viewBox="0 0 800 800" width="100%" height="100%">
  <!-- Achtergrond -->
  <rect width="100%" height="100%" fill="white"/>

  <!-- Klok buitenring (hulplijn voor de wijzers) -->
  <circle cx="400" cy="400" r="330" fill="none" stroke="#ccc" stroke-width="3" stroke-dasharray="12,12"/>

  <!-- Klok getallen rondom de vlinder (Buiten de vleugels) -->
  <g font-family="sans-serif" text-anchor="middle" fill="black">
    <text x="400" y="80" font-size="40" font-weight="bold">12</text>
    <text x="565" y="125" font-size="30">1</text>
    <text x="685" y="245" font-size="30">2</text>
    <text x="745" y="415" font-size="40" font-weight="bold">3</text>
    <text x="685" y="585" font-size="30">4</text>
    <text x="565" y="705" font-size="30">5</text>
    <text x="400" y="760" font-size="40" font-weight="bold">6</text>
    <text x="235" y="705" font-size="30">7</text>
    <text x="115" y="585" font-size="30">8</text>
    <text x="55" y="415" font-size="40" font-weight="bold">9</text>
    <text x="115" y="245" font-size="30">10</text>
    <text x="235" y="125" font-size="30">11</text>
  </g>

  <!-- Voelsprieten -->
  <path d="M 370 140 Q 320 60 250 90" fill="none" stroke="black" stroke-width="5" stroke-linecap="round"/>
  <circle cx="250" cy="90" r="10" fill="black"/>
  <path d="M 430 140 Q 480 60 550 90" fill="none" stroke="black" stroke-width="5" stroke-linecap="round"/>
  <circle cx="550" cy="90" r="10" fill="black"/>

  <!-- VLEUGELS (Beginnen precies in het midden (x=400) om 100% zeker te overlappen met het lijfje) -->
  <g fill="white" stroke="black" stroke-width="6" stroke-linejoin="round">
    
    <!-- LINKERVLEUGEL -->
    <!-- 3 Bollingen die precies inhammen waar de binnenlijnen raken -->
    <path d="M 400 280 C 150 150 50 300 100 390 C 40 430 40 500 120 540 C 80 650 200 700 400 520 L 400 280 Z" />
    <!-- Verdelingslijnen (nerven) die naar de inhammen lopen -->
    <path d="M 400 370 Q 250 370 100 390" fill="none" stroke-linecap="round"/>
    <path d="M 400 450 Q 250 480 120 540" fill="none" stroke-linecap="round"/>

    <!-- RECHTERVLEUGEL -->
    <!-- 3 Bollingen die precies inhammen waar de binnenlijnen raken -->
    <path d="M 400 280 C 650 150 750 300 700 390 C 760 430 760 500 680 540 C 720 650 600 700 400 520 L 400 280 Z" />
    <!-- Verdelingslijnen (nerven) die naar de inhammen lopen -->
    <path d="M 400 370 Q 550 370 700 390" fill="none" stroke-linecap="round"/>
    <path d="M 400 450 Q 550 480 680 540" fill="none" stroke-linecap="round"/>
    
  </g>

  <!-- INVUL-RONDJES VOOR DE LETTERS -->
  <!-- Stippellijn-cirkeltjes in elk vlak -->
  <g fill="white" stroke="black" stroke-width="3" stroke-dasharray="4,4">
    <!-- Links -->
    <circle cx="200" cy="300" r="28"/>
    <circle cx="170" cy="460" r="28"/>
    <circle cx="240" cy="600" r="28"/>
    
    <!-- Rechts -->
    <circle cx="600" cy="300" r="28"/>
    <circle cx="630" cy="460" r="28"/>
    <circle cx="560" cy="600" r="28"/>
  </g>

  <!-- LIJFJE (Overlapt het startpunt van de vleugels en nerven perfect) -->
  <ellipse cx="400" cy="400" rx="55" ry="140" fill="white" stroke="black" stroke-width="6"/>
  
  <!-- Gat voor de splitpen in het midden -->
  <circle cx="400" cy="400" r="8" fill="white" stroke="black" stroke-width="4"/>

  <!-- KOP / SYMBOOL PLEK (Rust op het lijfje) -->
  <!-- Stippellijn cirkel -->
  <circle cx="400" cy="200" r="60" fill="white" stroke="black" stroke-width="4" stroke-dasharray="8,6"/>
  <!-- Tekst in de kop -->
  <text x="400" y="195" text-anchor="middle" font-family="sans-serif" font-size="16" font-weight="bold">Plak symbool</text>
  <text x="400" y="215" text-anchor="middle" font-family="sans-serif" font-size="16" font-weight="bold">hier</text>

</svg>